<svg width="135" height="144" viewBox="0 0 135 144" fill="none" xmlns="http://www.w3.org/2000/svg">
<path d="M109.885 63.755C118.563 84.224 114.148 84.5156 89.3038 95.0493C64.4597 105.583 37.6494 122.406 28.9706 101.937C20.2919 81.4675 5.80854 33.0869 30.6527 22.5532C55.4968 12.0194 101.206 43.2859 109.885 63.755Z" fill="url(#paint0_linear_1_349)"/>
<ellipse cx="70.4588" cy="82.7511" rx="50.8716" ry="44.0786" transform="rotate(-22.9766 70.4588 82.7511)" fill="url(#paint1_radial_1_349)" fill-opacity="0.5"/>
<ellipse cx="70.205" cy="83.4037" rx="47.3623" ry="40.1515" transform="rotate(-22.9766 70.205 83.4037)" fill="#F0DCC5"/>
<ellipse cx="69.9974" cy="82.2703" rx="44.827" ry="36.9329" transform="rotate(-22.9766 69.9974 82.2703)" fill="url(#paint2_radial_1_349)"/>
<mask id="mask0_1_349" style="mask-type:alpha" maskUnits="userSpaceOnUse" x="26" y="44" width="88" height="77">
<ellipse cx="69.9972" cy="82.271" rx="44.827" ry="36.9329" transform="rotate(-22.9766 69.9972 82.271)" fill="#D16035"/>
</mask>
<g mask="url(#mask0_1_349)">
<path d="M86.3905 21.0293C94.1135 39.2442 82.4963 61.8772 59.9854 71.4217C37.4744 80.9662 13.1296 73.5808 5.40663 55.3659C-2.31636 37.151 9.30075 14.518 31.8117 4.97346C54.3227 -4.57105 78.6675 2.81441 86.3905 21.0293Z" stroke="url(#paint3_radial_1_349)" stroke-width="1.69158"/>
<path d="M132.392 124.216C140.166 142.551 131.32 163.867 112.589 171.809C93.8572 179.751 72.3855 171.289 64.6115 152.954C56.8376 134.619 65.6836 113.303 84.4149 105.361C103.146 97.4191 124.618 105.881 132.392 124.216Z" stroke="url(#paint4_linear_1_349)" stroke-width="1.69158"/>
</g>
<defs>
<linearGradient id="paint0_linear_1_349" x1="30.3802" y1="37.2535" x2="77.6413" y2="119.291" gradientUnits="userSpaceOnUse">
<stop stop-color="#F5FF7C" stop-opacity="0"/>
<stop offset="0.544444" stop-color="#F0DCC5"/>
<stop offset="1" stop-color="#AD8B64"/>
</linearGradient>
<radialGradient id="paint1_radial_1_349" cx="0" cy="0" r="1" gradientUnits="userSpaceOnUse" gradientTransform="translate(71.0688 136.765) rotate(-84.1426) scale(65.0671 75.1295)">
<stop stop-color="#FFEC3E"/>
<stop offset="1" stop-color="#F0DCC5"/>
</radialGradient>
<radialGradient id="paint2_radial_1_349" cx="0" cy="0" r="1" gradientUnits="userSpaceOnUse" gradientTransform="translate(67.5935 50.7285) rotate(91.0357) scale(86.0166 104.402)">
<stop stop-color="#F0DCC5"/>
<stop offset="0.546875" stop-color="#F0DCC5"/>
<stop offset="1" stop-color="#CF9B5E"/>
</radialGradient>
<radialGradient id="paint3_radial_1_349" cx="0" cy="0" r="1" gradientUnits="userSpaceOnUse" gradientTransform="translate(56.0355 87.1557) rotate(-100.46) scale(55.9055 67.8548)">
<stop stop-color="white"/>
<stop offset="1" stop-color="white" stop-opacity="0"/>
</radialGradient>
<linearGradient id="paint4_linear_1_349" x1="76.6159" y1="89.975" x2="90.9944" y2="117.322" gradientUnits="userSpaceOnUse">
<stop stop-color="white"/>
<stop offset="1" stop-color="white" stop-opacity="0"/>
</linearGradient>
</defs>
</svg>
